<mxfile host="app.diagrams.net" modified="2020-06-25T22:55:29.419Z" agent="5.0 (Windows NT 10.0; Win64; x64) AppleWebKit/537.36 (KHTML, like Gecko) Chrome/83.0.4103.116 Safari/537.36" etag="uuq06KNNb5k1pi-Od8_3" version="13.3.4" type="github" pages="4">
  <diagram id="OQty-NXnqmSr2ycwMKxP" name="login">
    <mxGraphModel dx="1422" dy="794" grid="1" gridSize="10" guides="1" tooltips="1" connect="1" arrows="1" fold="1" page="1" pageScale="1" pageWidth="1100" pageHeight="1700" math="0" shadow="0">
      <root>
        <mxCell id="0" />
        <mxCell id="1" parent="0" />
        <mxCell id="oeJr3rAG3G40-g2g1GoQ-14" value="Alt" style="shape=umlFrame;whiteSpace=wrap;html=1;" parent="1" vertex="1">
          <mxGeometry x="290" y="490" width="390" height="260" as="geometry" />
        </mxCell>
        <mxCell id="oeJr3rAG3G40-g2g1GoQ-15" value="" style="endArrow=none;dashed=1;html=1;exitX=0.003;exitY=0.473;exitDx=0;exitDy=0;exitPerimeter=0;entryX=1.003;entryY=0.473;entryDx=0;entryDy=0;entryPerimeter=0;" parent="1" source="oeJr3rAG3G40-g2g1GoQ-14" target="oeJr3rAG3G40-g2g1GoQ-14" edge="1">
          <mxGeometry width="50" height="50" relative="1" as="geometry">
            <mxPoint x="520" y="430" as="sourcePoint" />
            <mxPoint x="570" y="380" as="targetPoint" />
          </mxGeometry>
        </mxCell>
        <mxCell id="oeJr3rAG3G40-g2g1GoQ-1" value="Individual" style="shape=umlActor;verticalLabelPosition=bottom;labelBackgroundColor=#ffffff;verticalAlign=top;html=1;" parent="1" vertex="1">
          <mxGeometry x="160" y="180" width="30" height="60" as="geometry" />
        </mxCell>
        <mxCell id="oeJr3rAG3G40-g2g1GoQ-5" value="" style="html=1;points=[];perimeter=orthogonalPerimeter;" parent="1" vertex="1">
          <mxGeometry x="170" y="280" width="10" height="570" as="geometry" />
        </mxCell>
        <mxCell id="oeJr3rAG3G40-g2g1GoQ-8" value="User calls login function" style="html=1;verticalAlign=bottom;endArrow=block;entryX=-0.3;entryY=0.058;entryDx=0;entryDy=0;entryPerimeter=0;exitX=0.9;exitY=0.123;exitDx=0;exitDy=0;exitPerimeter=0;" parent="1" source="oeJr3rAG3G40-g2g1GoQ-5" target="oeJr3rAG3G40-g2g1GoQ-10" edge="1">
          <mxGeometry width="80" relative="1" as="geometry">
            <mxPoint x="180" y="340" as="sourcePoint" />
            <mxPoint x="360" y="340" as="targetPoint" />
          </mxGeometry>
        </mxCell>
        <mxCell id="oeJr3rAG3G40-g2g1GoQ-9" value="System UI" style="html=1;" parent="1" vertex="1">
          <mxGeometry x="350" y="180" width="110" height="50" as="geometry" />
        </mxCell>
        <mxCell id="oeJr3rAG3G40-g2g1GoQ-10" value="" style="html=1;points=[];perimeter=orthogonalPerimeter;" parent="1" vertex="1">
          <mxGeometry x="400" y="320" width="10" height="450" as="geometry" />
        </mxCell>
        <mxCell id="oeJr3rAG3G40-g2g1GoQ-11" value="Database" style="html=1;" parent="1" vertex="1">
          <mxGeometry x="600" y="180" width="110" height="50" as="geometry" />
        </mxCell>
        <mxCell id="oeJr3rAG3G40-g2g1GoQ-12" value="Login information input" style="html=1;verticalAlign=bottom;endArrow=block;exitX=1.2;exitY=0.273;exitDx=0;exitDy=0;exitPerimeter=0;" parent="1" source="oeJr3rAG3G40-g2g1GoQ-10" edge="1">
          <mxGeometry width="80" relative="1" as="geometry">
            <mxPoint x="510" y="410" as="sourcePoint" />
            <mxPoint x="648" y="440" as="targetPoint" />
          </mxGeometry>
        </mxCell>
        <mxCell id="oeJr3rAG3G40-g2g1GoQ-13" value="" style="html=1;points=[];perimeter=orthogonalPerimeter;" parent="1" vertex="1">
          <mxGeometry x="650" y="410" width="10" height="280" as="geometry" />
        </mxCell>
        <mxCell id="oeJr3rAG3G40-g2g1GoQ-17" value="[correct login info]" style="text;html=1;align=center;verticalAlign=middle;resizable=0;points=[];autosize=1;" parent="1" vertex="1">
          <mxGeometry x="290" y="530" width="110" height="20" as="geometry" />
        </mxCell>
        <mxCell id="oeJr3rAG3G40-g2g1GoQ-18" value="[Incorrect login info]" style="text;html=1;align=center;verticalAlign=middle;resizable=0;points=[];autosize=1;" parent="1" vertex="1">
          <mxGeometry x="285" y="610" width="120" height="20" as="geometry" />
        </mxCell>
        <mxCell id="oeJr3rAG3G40-g2g1GoQ-19" value="Access granted" style="html=1;verticalAlign=bottom;endArrow=open;dashed=1;endSize=8;" parent="1" target="oeJr3rAG3G40-g2g1GoQ-10" edge="1">
          <mxGeometry relative="1" as="geometry">
            <mxPoint x="650" y="539.5" as="sourcePoint" />
            <mxPoint x="570" y="539.5" as="targetPoint" />
          </mxGeometry>
        </mxCell>
        <mxCell id="oeJr3rAG3G40-g2g1GoQ-20" value="Access denied" style="html=1;verticalAlign=bottom;endArrow=open;dashed=1;endSize=8;entryX=1;entryY=0.8;entryDx=0;entryDy=0;entryPerimeter=0;" parent="1" target="oeJr3rAG3G40-g2g1GoQ-10" edge="1">
          <mxGeometry relative="1" as="geometry">
            <mxPoint x="650" y="680" as="sourcePoint" />
            <mxPoint x="570" y="680" as="targetPoint" />
          </mxGeometry>
        </mxCell>
        <mxCell id="oeJr3rAG3G40-g2g1GoQ-21" value="Login error message returned" style="html=1;verticalAlign=bottom;endArrow=open;dashed=1;endSize=8;entryX=1.2;entryY=0.807;entryDx=0;entryDy=0;entryPerimeter=0;" parent="1" target="oeJr3rAG3G40-g2g1GoQ-5" edge="1">
          <mxGeometry relative="1" as="geometry">
            <mxPoint x="400" y="740" as="sourcePoint" />
            <mxPoint x="320" y="740" as="targetPoint" />
          </mxGeometry>
        </mxCell>
        <mxCell id="oeJr3rAG3G40-g2g1GoQ-22" value="Login success message" style="html=1;verticalAlign=bottom;endArrow=open;dashed=1;endSize=8;entryX=1.1;entryY=0.526;entryDx=0;entryDy=0;entryPerimeter=0;" parent="1" target="oeJr3rAG3G40-g2g1GoQ-5" edge="1">
          <mxGeometry relative="1" as="geometry">
            <mxPoint x="400" y="580" as="sourcePoint" />
            <mxPoint x="320" y="580" as="targetPoint" />
          </mxGeometry>
        </mxCell>
        <mxCell id="oeJr3rAG3G40-g2g1GoQ-23" value="" style="endArrow=none;dashed=1;html=1;exitX=0.6;exitY=0.007;exitDx=0;exitDy=0;exitPerimeter=0;entryX=0.5;entryY=1;entryDx=0;entryDy=0;" parent="1" source="oeJr3rAG3G40-g2g1GoQ-13" target="oeJr3rAG3G40-g2g1GoQ-11" edge="1">
          <mxGeometry width="50" height="50" relative="1" as="geometry">
            <mxPoint x="620" y="280" as="sourcePoint" />
            <mxPoint x="670" y="230" as="targetPoint" />
          </mxGeometry>
        </mxCell>
        <mxCell id="oeJr3rAG3G40-g2g1GoQ-24" value="" style="endArrow=none;dashed=1;html=1;exitX=0.6;exitY=0.002;exitDx=0;exitDy=0;exitPerimeter=0;" parent="1" source="oeJr3rAG3G40-g2g1GoQ-10" edge="1">
          <mxGeometry width="50" height="50" relative="1" as="geometry">
            <mxPoint x="355" y="280" as="sourcePoint" />
            <mxPoint x="405" y="230" as="targetPoint" />
          </mxGeometry>
        </mxCell>
      </root>
    </mxGraphModel>
  </diagram>
  <diagram id="cHFTdVUpRUrUcHn7fcq4" name="logout">
    <mxGraphModel dx="1422" dy="794" grid="1" gridSize="10" guides="1" tooltips="1" connect="1" arrows="1" fold="1" page="1" pageScale="1" pageWidth="1100" pageHeight="1700" math="0" shadow="0">
      <root>
        <mxCell id="EXt97QWvrdN8Ot6uOYSs-0" />
        <mxCell id="EXt97QWvrdN8Ot6uOYSs-1" parent="EXt97QWvrdN8Ot6uOYSs-0" />
        <mxCell id="Gvi1eQuUiNswGMvfQ2-H-2" value="Individual" style="shape=umlActor;verticalLabelPosition=bottom;labelBackgroundColor=#ffffff;verticalAlign=top;html=1;" vertex="1" parent="EXt97QWvrdN8Ot6uOYSs-1">
          <mxGeometry x="160" y="180" width="30" height="60" as="geometry" />
        </mxCell>
        <mxCell id="Gvi1eQuUiNswGMvfQ2-H-3" value="" style="html=1;points=[];perimeter=orthogonalPerimeter;" vertex="1" parent="EXt97QWvrdN8Ot6uOYSs-1">
          <mxGeometry x="170" y="280" width="10" height="350" as="geometry" />
        </mxCell>
        <mxCell id="Gvi1eQuUiNswGMvfQ2-H-4" value="User calls logout function" style="html=1;verticalAlign=bottom;endArrow=block;exitX=1.1;exitY=0.194;exitDx=0;exitDy=0;exitPerimeter=0;" edge="1" parent="EXt97QWvrdN8Ot6uOYSs-1" source="Gvi1eQuUiNswGMvfQ2-H-3">
          <mxGeometry width="80" relative="1" as="geometry">
            <mxPoint x="180" y="340" as="sourcePoint" />
            <mxPoint x="397" y="350" as="targetPoint" />
          </mxGeometry>
        </mxCell>
        <mxCell id="Gvi1eQuUiNswGMvfQ2-H-5" value="System UI" style="html=1;" vertex="1" parent="EXt97QWvrdN8Ot6uOYSs-1">
          <mxGeometry x="350" y="180" width="110" height="50" as="geometry" />
        </mxCell>
        <mxCell id="Gvi1eQuUiNswGMvfQ2-H-6" value="" style="html=1;points=[];perimeter=orthogonalPerimeter;" vertex="1" parent="EXt97QWvrdN8Ot6uOYSs-1">
          <mxGeometry x="400" y="320" width="10" height="200" as="geometry" />
        </mxCell>
        <mxCell id="Gvi1eQuUiNswGMvfQ2-H-17" value="" style="endArrow=none;dashed=1;html=1;exitX=0.6;exitY=0.002;exitDx=0;exitDy=0;exitPerimeter=0;" edge="1" parent="EXt97QWvrdN8Ot6uOYSs-1" source="Gvi1eQuUiNswGMvfQ2-H-6">
          <mxGeometry width="50" height="50" relative="1" as="geometry">
            <mxPoint x="355" y="280" as="sourcePoint" />
            <mxPoint x="405" y="230" as="targetPoint" />
          </mxGeometry>
        </mxCell>
        <mxCell id="vO2D31FNPuPpw0dvwhhP-0" value="Logout success message" style="html=1;verticalAlign=bottom;endArrow=open;dashed=1;endSize=8;" edge="1" parent="EXt97QWvrdN8Ot6uOYSs-1" target="Gvi1eQuUiNswGMvfQ2-H-3">
          <mxGeometry relative="1" as="geometry">
            <mxPoint x="400" y="454.5" as="sourcePoint" />
            <mxPoint x="320" y="454.5" as="targetPoint" />
          </mxGeometry>
        </mxCell>
      </root>
    </mxGraphModel>
  </diagram>
  <diagram id="pSA1L2hCZXIdxefkhWyn" name="search_courses_parameter">
    <mxGraphModel dx="1422" dy="794" grid="1" gridSize="10" guides="1" tooltips="1" connect="1" arrows="1" fold="1" page="1" pageScale="1" pageWidth="1100" pageHeight="1700" math="0" shadow="0">
      <root>
        <mxCell id="tJyVz9wa3FLh-ElpT3_--0" />
        <mxCell id="tJyVz9wa3FLh-ElpT3_--1" parent="tJyVz9wa3FLh-ElpT3_--0" />
        <mxCell id="Xif15S6U6opqR_IZoIkc-12" value="alt" style="shape=umlFrame;whiteSpace=wrap;html=1;" vertex="1" parent="tJyVz9wa3FLh-ElpT3_--1">
          <mxGeometry x="130" y="420" width="647.87" height="350" as="geometry" />
        </mxCell>
        <mxCell id="tJyVz9wa3FLh-ElpT3_--2" value="Individual" style="shape=umlActor;verticalLabelPosition=bottom;labelBackgroundColor=#ffffff;verticalAlign=top;html=1;" vertex="1" parent="tJyVz9wa3FLh-ElpT3_--1">
          <mxGeometry x="190" y="190" width="30" height="60" as="geometry" />
        </mxCell>
        <mxCell id="tJyVz9wa3FLh-ElpT3_--4" value="" style="html=1;points=[];perimeter=orthogonalPerimeter;" vertex="1" parent="tJyVz9wa3FLh-ElpT3_--1">
          <mxGeometry x="200" y="280" width="10" height="580" as="geometry" />
        </mxCell>
        <mxCell id="tJyVz9wa3FLh-ElpT3_--5" value="System UI" style="html=1;" vertex="1" parent="tJyVz9wa3FLh-ElpT3_--1">
          <mxGeometry x="340" y="195" width="110" height="50" as="geometry" />
        </mxCell>
        <mxCell id="Xif15S6U6opqR_IZoIkc-0" value="User chooses course search &lt;br&gt;and search parameter" style="html=1;verticalAlign=bottom;endArrow=block;" edge="1" parent="tJyVz9wa3FLh-ElpT3_--1">
          <mxGeometry width="80" relative="1" as="geometry">
            <mxPoint x="210" y="330" as="sourcePoint" />
            <mxPoint x="386" y="330" as="targetPoint" />
          </mxGeometry>
        </mxCell>
        <mxCell id="Xif15S6U6opqR_IZoIkc-1" value="" style="html=1;points=[];perimeter=orthogonalPerimeter;" vertex="1" parent="tJyVz9wa3FLh-ElpT3_--1">
          <mxGeometry x="390" y="300" width="10" height="500" as="geometry" />
        </mxCell>
        <mxCell id="Xif15S6U6opqR_IZoIkc-3" value="Database" style="html=1;" vertex="1" parent="tJyVz9wa3FLh-ElpT3_--1">
          <mxGeometry x="530" y="195" width="110" height="50" as="geometry" />
        </mxCell>
        <mxCell id="Xif15S6U6opqR_IZoIkc-4" value="find parameter in course database" style="html=1;verticalAlign=bottom;endArrow=block;" edge="1" parent="tJyVz9wa3FLh-ElpT3_--1">
          <mxGeometry width="80" relative="1" as="geometry">
            <mxPoint x="400" y="390" as="sourcePoint" />
            <mxPoint x="579" y="390" as="targetPoint" />
          </mxGeometry>
        </mxCell>
        <mxCell id="Xif15S6U6opqR_IZoIkc-5" value="" style="endArrow=none;dashed=1;html=1;entryX=1;entryY=0.523;entryDx=0;entryDy=0;entryPerimeter=0;exitX=-0.007;exitY=0.517;exitDx=0;exitDy=0;exitPerimeter=0;" edge="1" parent="tJyVz9wa3FLh-ElpT3_--1" source="Xif15S6U6opqR_IZoIkc-12" target="Xif15S6U6opqR_IZoIkc-12">
          <mxGeometry width="50" height="50" relative="1" as="geometry">
            <mxPoint x="342" y="530.03" as="sourcePoint" />
            <mxPoint x="757.8699999999999" y="530" as="targetPoint" />
          </mxGeometry>
        </mxCell>
        <mxCell id="Xif15S6U6opqR_IZoIkc-7" value="" style="html=1;points=[];perimeter=orthogonalPerimeter;" vertex="1" parent="tJyVz9wa3FLh-ElpT3_--1">
          <mxGeometry x="580" y="320" width="10" height="360" as="geometry" />
        </mxCell>
        <mxCell id="Xif15S6U6opqR_IZoIkc-13" value="Return matching information" style="html=1;verticalAlign=bottom;endArrow=open;dashed=1;endSize=8;" edge="1" parent="tJyVz9wa3FLh-ElpT3_--1" target="Xif15S6U6opqR_IZoIkc-1">
          <mxGeometry relative="1" as="geometry">
            <mxPoint x="580" y="500" as="sourcePoint" />
            <mxPoint x="500" y="500" as="targetPoint" />
          </mxGeometry>
        </mxCell>
        <mxCell id="Xif15S6U6opqR_IZoIkc-14" value="[information valid/found]" style="text;html=1;align=center;verticalAlign=middle;resizable=0;points=[];autosize=1;" vertex="1" parent="tJyVz9wa3FLh-ElpT3_--1">
          <mxGeometry x="210" y="420" width="140" height="20" as="geometry" />
        </mxCell>
        <mxCell id="Xif15S6U6opqR_IZoIkc-16" value="Print information to screen" style="html=1;verticalAlign=bottom;endArrow=open;dashed=1;endSize=8;entryX=0.9;entryY=0.466;entryDx=0;entryDy=0;entryPerimeter=0;" edge="1" parent="tJyVz9wa3FLh-ElpT3_--1" target="tJyVz9wa3FLh-ElpT3_--4">
          <mxGeometry relative="1" as="geometry">
            <mxPoint x="390" y="549.5" as="sourcePoint" />
            <mxPoint x="310" y="549.5" as="targetPoint" />
          </mxGeometry>
        </mxCell>
        <mxCell id="Xif15S6U6opqR_IZoIkc-17" value="Return error message" style="html=1;verticalAlign=bottom;endArrow=open;dashed=1;endSize=8;entryX=1.2;entryY=0.738;entryDx=0;entryDy=0;entryPerimeter=0;" edge="1" parent="tJyVz9wa3FLh-ElpT3_--1" target="Xif15S6U6opqR_IZoIkc-1">
          <mxGeometry relative="1" as="geometry">
            <mxPoint x="580" y="670" as="sourcePoint" />
            <mxPoint x="500" y="670" as="targetPoint" />
          </mxGeometry>
        </mxCell>
        <mxCell id="Xif15S6U6opqR_IZoIkc-15" value="[Information not valid&lt;br&gt;or not found]" style="text;html=1;align=center;verticalAlign=middle;resizable=0;points=[];autosize=1;" vertex="1" parent="tJyVz9wa3FLh-ElpT3_--1">
          <mxGeometry x="210" y="610" width="130" height="30" as="geometry" />
        </mxCell>
        <mxCell id="Xif15S6U6opqR_IZoIkc-19" value="Print error message" style="html=1;verticalAlign=bottom;endArrow=open;dashed=1;endSize=8;" edge="1" parent="tJyVz9wa3FLh-ElpT3_--1" target="tJyVz9wa3FLh-ElpT3_--4">
          <mxGeometry relative="1" as="geometry">
            <mxPoint x="390" y="720" as="sourcePoint" />
            <mxPoint x="310" y="720" as="targetPoint" />
          </mxGeometry>
        </mxCell>
      </root>
    </mxGraphModel>
  </diagram>
  <diagram id="WGpe8k05fdaSOMwnMI_9" name="Page-4">
    <mxGraphModel dx="1422" dy="794" grid="1" gridSize="10" guides="1" tooltips="1" connect="1" arrows="1" fold="1" page="1" pageScale="1" pageWidth="1100" pageHeight="1700" math="0" shadow="0">
      <root>
        <mxCell id="a_JXKeq3EB7c8Mwqcqca-0" />
        <mxCell id="a_JXKeq3EB7c8Mwqcqca-1" parent="a_JXKeq3EB7c8Mwqcqca-0" />
        <mxCell id="EoG4r-bD3eP62TJ5E-R6-0" value="alt" style="shape=umlFrame;whiteSpace=wrap;html=1;" vertex="1" parent="a_JXKeq3EB7c8Mwqcqca-1">
          <mxGeometry x="130" y="420" width="647.87" height="350" as="geometry" />
        </mxCell>
        <mxCell id="EoG4r-bD3eP62TJ5E-R6-1" value="Individual" style="shape=umlActor;verticalLabelPosition=bottom;labelBackgroundColor=#ffffff;verticalAlign=top;html=1;" vertex="1" parent="a_JXKeq3EB7c8Mwqcqca-1">
          <mxGeometry x="190" y="190" width="30" height="60" as="geometry" />
        </mxCell>
        <mxCell id="EoG4r-bD3eP62TJ5E-R6-2" value="" style="html=1;points=[];perimeter=orthogonalPerimeter;" vertex="1" parent="a_JXKeq3EB7c8Mwqcqca-1">
          <mxGeometry x="200" y="280" width="10" height="580" as="geometry" />
        </mxCell>
        <mxCell id="EoG4r-bD3eP62TJ5E-R6-3" value="System UI" style="html=1;" vertex="1" parent="a_JXKeq3EB7c8Mwqcqca-1">
          <mxGeometry x="340" y="195" width="110" height="50" as="geometry" />
        </mxCell>
        <mxCell id="EoG4r-bD3eP62TJ5E-R6-4" value="User chooses search all courses" style="html=1;verticalAlign=bottom;endArrow=block;" edge="1" parent="a_JXKeq3EB7c8Mwqcqca-1">
          <mxGeometry width="80" relative="1" as="geometry">
            <mxPoint x="210" y="330" as="sourcePoint" />
            <mxPoint x="386" y="330" as="targetPoint" />
          </mxGeometry>
        </mxCell>
        <mxCell id="EoG4r-bD3eP62TJ5E-R6-5" value="" style="html=1;points=[];perimeter=orthogonalPerimeter;" vertex="1" parent="a_JXKeq3EB7c8Mwqcqca-1">
          <mxGeometry x="390" y="300" width="10" height="500" as="geometry" />
        </mxCell>
        <mxCell id="EoG4r-bD3eP62TJ5E-R6-6" value="Database" style="html=1;" vertex="1" parent="a_JXKeq3EB7c8Mwqcqca-1">
          <mxGeometry x="530" y="195" width="110" height="50" as="geometry" />
        </mxCell>
        <mxCell id="EoG4r-bD3eP62TJ5E-R6-7" value="Fetch all course information" style="html=1;verticalAlign=bottom;endArrow=block;" edge="1" parent="a_JXKeq3EB7c8Mwqcqca-1">
          <mxGeometry width="80" relative="1" as="geometry">
            <mxPoint x="400" y="390" as="sourcePoint" />
            <mxPoint x="579" y="390" as="targetPoint" />
          </mxGeometry>
        </mxCell>
        <mxCell id="EoG4r-bD3eP62TJ5E-R6-8" value="" style="endArrow=none;dashed=1;html=1;entryX=1;entryY=0.523;entryDx=0;entryDy=0;entryPerimeter=0;exitX=-0.007;exitY=0.517;exitDx=0;exitDy=0;exitPerimeter=0;" edge="1" parent="a_JXKeq3EB7c8Mwqcqca-1" source="EoG4r-bD3eP62TJ5E-R6-0" target="EoG4r-bD3eP62TJ5E-R6-0">
          <mxGeometry width="50" height="50" relative="1" as="geometry">
            <mxPoint x="342" y="530.03" as="sourcePoint" />
            <mxPoint x="757.8699999999999" y="530" as="targetPoint" />
          </mxGeometry>
        </mxCell>
        <mxCell id="EoG4r-bD3eP62TJ5E-R6-9" value="" style="html=1;points=[];perimeter=orthogonalPerimeter;" vertex="1" parent="a_JXKeq3EB7c8Mwqcqca-1">
          <mxGeometry x="580" y="320" width="10" height="360" as="geometry" />
        </mxCell>
        <mxCell id="EoG4r-bD3eP62TJ5E-R6-10" value="Return all courses with all valid info" style="html=1;verticalAlign=bottom;endArrow=open;dashed=1;endSize=8;" edge="1" parent="a_JXKeq3EB7c8Mwqcqca-1" target="EoG4r-bD3eP62TJ5E-R6-5">
          <mxGeometry relative="1" as="geometry">
            <mxPoint x="580" y="500" as="sourcePoint" />
            <mxPoint x="500" y="500" as="targetPoint" />
          </mxGeometry>
        </mxCell>
        <mxCell id="EoG4r-bD3eP62TJ5E-R6-11" value="[information valid/found]" style="text;html=1;align=center;verticalAlign=middle;resizable=0;points=[];autosize=1;" vertex="1" parent="a_JXKeq3EB7c8Mwqcqca-1">
          <mxGeometry x="210" y="420" width="140" height="20" as="geometry" />
        </mxCell>
        <mxCell id="EoG4r-bD3eP62TJ5E-R6-12" value="Print information to screen" style="html=1;verticalAlign=bottom;endArrow=open;dashed=1;endSize=8;entryX=0.9;entryY=0.466;entryDx=0;entryDy=0;entryPerimeter=0;" edge="1" parent="a_JXKeq3EB7c8Mwqcqca-1" target="EoG4r-bD3eP62TJ5E-R6-2">
          <mxGeometry relative="1" as="geometry">
            <mxPoint x="390" y="549.5" as="sourcePoint" />
            <mxPoint x="310" y="549.5" as="targetPoint" />
          </mxGeometry>
        </mxCell>
        <mxCell id="EoG4r-bD3eP62TJ5E-R6-13" value="Return error message" style="html=1;verticalAlign=bottom;endArrow=open;dashed=1;endSize=8;entryX=1.2;entryY=0.738;entryDx=0;entryDy=0;entryPerimeter=0;" edge="1" parent="a_JXKeq3EB7c8Mwqcqca-1" target="EoG4r-bD3eP62TJ5E-R6-5">
          <mxGeometry relative="1" as="geometry">
            <mxPoint x="580" y="670" as="sourcePoint" />
            <mxPoint x="500" y="670" as="targetPoint" />
          </mxGeometry>
        </mxCell>
        <mxCell id="EoG4r-bD3eP62TJ5E-R6-14" value="[Information not valid&lt;br&gt;or not found]" style="text;html=1;align=center;verticalAlign=middle;resizable=0;points=[];autosize=1;" vertex="1" parent="a_JXKeq3EB7c8Mwqcqca-1">
          <mxGeometry x="210" y="610" width="130" height="30" as="geometry" />
        </mxCell>
        <mxCell id="EoG4r-bD3eP62TJ5E-R6-15" value="Print error message" style="html=1;verticalAlign=bottom;endArrow=open;dashed=1;endSize=8;" edge="1" parent="a_JXKeq3EB7c8Mwqcqca-1" target="EoG4r-bD3eP62TJ5E-R6-2">
          <mxGeometry relative="1" as="geometry">
            <mxPoint x="390" y="720" as="sourcePoint" />
            <mxPoint x="310" y="720" as="targetPoint" />
          </mxGeometry>
        </mxCell>
      </root>
    </mxGraphModel>
  </diagram>
</mxfile>
